<?xml version="1.0" standalone="no"?>
<!DOCTYPE svg PUBLIC "-//W3C//DTD SVG 20010904//EN"
 "http://www.w3.org/TR/2001/REC-SVG-20010904/DTD/svg10.dtd">
<svg version="1.0" xmlns="http://www.w3.org/2000/svg"
 width="850.000000pt" height="723.000000pt" viewBox="0 0 850.000000 723.000000"
 preserveAspectRatio="xMidYMid meet">

<g transform="translate(0.000000,723.000000) scale(0.100000,-0.100000)"
fill="#000000" stroke="none">
<path d="M6576 6652 c-3 -5 -58 -12 -122 -15 -65 -4 -120 -10 -123 -15 -3 -5
-23 -12 -43 -16 -21 -4 -38 -11 -38 -16 0 -4 -13 -11 -30 -15 -16 -4 -30 -10
-30 -15 0 -5 -13 -11 -30 -15 -17 -4 -30 -13 -30 -21 0 -20 -48 -64 -70 -64
-9 0 -29 -13 -43 -30 -15 -16 -32 -30 -38 -30 -14 0 -62 -48 -78 -78 -6 -12
-19 -22 -28 -22 -17 0 -64 -37 -148 -117 -31 -29 -59 -53 -63 -53 -4 0 -28
-20 -52 -45 -24 -25 -49 -45 -55 -45 -6 0 -28 -20 -50 -45 -22 -25 -45 -45
-50 -45 -6 0 -35 -25 -65 -55 -30 -30 -58 -55 -63 -55 -5 0 -39 -31 -76 -70
-38 -38 -72 -70 -77 -70 -5 0 -39 -30 -74 -66 -36 -36 -80 -73 -99 -81 -18 -8
-31 -17 -28 -20 4 -3 1 -10 -6 -17 -20 -18 -76 -56 -82 -56 -10 0 -61 -53 -74
-78 -6 -12 -18 -22 -26 -22 -8 0 -15 -7 -15 -15 0 -8 -7 -15 -15 -15 -9 0 -18
-7 -21 -15 -4 -8 -12 -15 -19 -15 -14 0 -205 -187 -205 -201 0 -5 -7 -9 -15
-9 -9 0 -65 -49 -126 -110 -60 -60 -114 -110 -118 -110 -4 0 -33 -25 -64 -55
-31 -30 -62 -55 -69 -55 -8 0 -38 25 -68 55 -30 30 -58 55 -62 55 -4 0 -25 18
-47 40 -21 22 -48 40 -60 40 -11 0 -21 6 -21 13 0 19 -63 77 -83 77 -9 0 -17
5 -17 11 0 17 -27 39 -49 39 -12 0 -21 6 -21 13 0 18 -62 77 -81 77 -9 0 -24
9 -34 20 -10 11 -23 20 -29 20 -6 0 -28 18 -49 40 -20 22 -42 40 -48 40 -5 0
-20 11 -33 25 -13 14 -29 25 -35 25 -6 0 -14 7 -17 15 -3 8 -15 17 -27 21 -11
4 -35 22 -53 40 -17 19 -37 34 -43 34 -6 0 -14 7 -17 15 -3 8 -15 17 -26 21
-12 3 -31 17 -43 30 -12 13 -31 24 -41 24 -11 0 -24 10 -29 22 -6 12 -19 26
-29 32 -11 6 -30 21 -42 34 -11 12 -28 22 -37 22 -8 0 -17 7 -21 15 -3 8 -14
15 -24 15 -11 0 -25 7 -32 15 -7 8 -17 15 -23 15 -6 0 -17 7 -26 15 -9 9 -34
29 -56 45 -22 16 -45 34 -51 39 -6 5 -20 12 -32 15 -12 4 -22 12 -22 17 0 5
-7 9 -15 9 -9 0 -18 6 -21 14 -3 8 -16 17 -30 20 -13 4 -24 11 -24 16 0 6 -7
10 -15 10 -9 0 -18 7 -21 15 -4 8 -17 15 -30 15 -15 0 -24 6 -24 15 0 9 -9 15
-25 15 -14 0 -25 3 -25 8 0 8 -10 14 -93 55 -32 15 -57 31 -57 36 0 10 -83 51
-104 51 -9 0 -16 3 -16 8 0 8 -73 42 -90 42 -6 0 -10 4 -10 9 0 5 -13 12 -29
16 -16 3 -32 13 -35 21 -3 8 -17 14 -31 14 -14 0 -25 4 -25 9 0 5 -14 12 -31
16 -17 4 -42 13 -57 21 -15 8 -39 14 -54 14 -16 0 -28 4 -28 9 0 5 -29 13 -65
16 -36 4 -68 11 -71 16 -3 5 -30 9 -60 9 -30 0 -54 5 -54 10 0 6 -9 10 -20 10
-11 0 -20 -4 -20 -10 0 -5 -25 -10 -55 -10 -30 0 -55 -4 -55 -10 0 -5 -5 -10
-10 -10 -25 0 -160 -117 -160 -138 0 -5 -7 -15 -15 -22 -8 -7 -17 -27 -21 -46
-3 -19 -10 -34 -15 -34 -4 0 -11 -31 -15 -70 -3 -38 -11 -70 -15 -70 -5 0 -9
-65 -9 -145 0 -80 4 -145 9 -145 4 0 12 -36 15 -80 4 -44 11 -80 16 -80 4 0
11 -19 15 -42 8 -48 62 -168 76 -168 5 0 9 -6 9 -13 0 -15 111 -127 127 -127
6 0 13 -7 17 -15 3 -8 11 -15 19 -15 7 0 24 -11 37 -25 13 -14 30 -25 37 -25
8 0 16 -7 19 -15 4 -8 24 -18 45 -21 23 -4 39 -12 39 -20 0 -8 9 -14 20 -14
11 0 20 -7 20 -15 0 -8 8 -15 18 -15 21 -1 52 -23 52 -39 0 -6 9 -11 20 -11
11 0 20 -4 20 -10 0 -5 11 -12 24 -16 14 -3 27 -12 30 -20 3 -8 12 -14 21 -14
8 0 15 -4 15 -10 0 -5 9 -10 20 -10 11 0 23 -7 26 -15 4 -8 11 -15 16 -15 6 0
27 -14 47 -30 56 -48 60 -50 69 -50 5 0 15 -7 22 -15 7 -8 21 -15 31 -15 11 0
19 -7 19 -15 0 -9 9 -15 25 -15 14 0 28 -6 31 -14 3 -8 17 -17 32 -21 14 -3
40 -21 57 -39 17 -19 42 -37 56 -41 13 -4 33 -18 45 -30 11 -13 30 -26 42 -29
11 -4 23 -13 26 -21 3 -8 12 -15 21 -15 8 0 15 -4 15 -10 0 -5 11 -12 25 -16
14 -3 25 -10 25 -15 0 -5 6 -9 14 -9 7 0 19 -7 26 -15 7 -8 21 -15 31 -15 11
0 19 -5 19 -11 0 -16 23 -35 50 -44 14 -4 27 -10 30 -14 8 -10 69 -51 75 -51
3 0 11 -4 18 -10 46 -38 74 -57 90 -63 9 -3 17 -11 17 -16 0 -5 10 -13 22 -16
11 -4 31 -17 42 -29 12 -13 29 -25 39 -29 9 -3 17 -11 17 -17 0 -5 4 -10 10
-10 28 0 91 -37 96 -57 4 -14 16 -24 35 -28 16 -4 29 -10 29 -15 0 -5 10 -12
23 -16 29 -9 37 -22 37 -64 0 -31 -10 -46 -90 -125 -49 -49 -90 -98 -90 -107
0 -10 -5 -18 -11 -18 -6 0 -55 -45 -109 -100 -54 -55 -94 -100 -89 -100 5 0 9
-4 9 -10 0 -5 -6 -10 -13 -10 -13 0 -167 -150 -167 -162 0 -4 -25 -33 -55 -63
-30 -31 -55 -65 -55 -76 0 -10 -5 -19 -11 -19 -14 0 -39 -25 -39 -40 0 -6 -7
-13 -15 -16 -8 -4 -15 -12 -15 -19 0 -6 -27 -39 -60 -73 -33 -33 -60 -63 -60
-66 0 -4 -18 -26 -40 -48 -22 -23 -40 -46 -40 -50 0 -5 -11 -19 -25 -32 -14
-13 -25 -31 -25 -40 0 -9 -5 -16 -10 -16 -12 0 -59 -50 -60 -64 0 -5 -11 -19
-25 -32 -14 -13 -25 -31 -25 -41 0 -10 -10 -23 -22 -28 -13 -6 -24 -20 -26
-32 -2 -13 -9 -23 -15 -23 -17 0 -47 -37 -47 -58 0 -17 -32 -52 -49 -52 -5 0
-11 -14 -15 -31 -3 -18 -21 -46 -40 -63 -18 -18 -37 -42 -40 -54 -4 -12 -12
-22 -17 -22 -5 0 -9 -7 -9 -15 0 -9 -6 -18 -14 -21 -8 -3 -17 -16 -20 -30 -4
-13 -11 -24 -16 -24 -5 0 -12 -16 -16 -36 -4 -24 -14 -39 -30 -46 -13 -6 -26
-23 -29 -37 -3 -15 -15 -33 -25 -41 -11 -8 -20 -26 -20 -41 0 -15 -6 -32 -14
-38 -8 -7 -18 -26 -21 -42 -4 -16 -11 -29 -16 -29 -5 0 -9 -7 -9 -15 0 -9 -7
-18 -15 -21 -8 -4 -15 -11 -15 -18 -1 -6 -9 -29 -20 -51 -11 -22 -19 -48 -20
-58 0 -18 -19 -58 -32 -68 -5 -3 -11 -27 -14 -55 -4 -27 -11 -52 -17 -55 -15
-10 -14 -235 1 -250 6 -7 12 -24 12 -38 0 -14 10 -35 22 -46 13 -11 28 -29 34
-39 6 -11 19 -24 30 -30 10 -6 23 -17 27 -23 4 -7 19 -13 32 -13 15 0 25 -6
25 -14 0 -7 7 -19 15 -26 12 -10 15 -10 15 0 0 9 5 8 18 -3 10 -10 30 -17 44
-17 15 0 28 -5 30 -10 2 -6 33 -13 71 -17 37 -3 67 -10 67 -14 0 -5 59 -9 130
-9 72 0 130 4 130 9 0 4 37 11 82 14 46 4 84 11 86 17 2 5 16 10 32 10 16 0
35 7 44 15 10 11 17 12 22 4 5 -8 10 -7 16 5 5 9 16 16 23 16 8 0 15 4 15 9 0
5 11 12 25 15 14 4 25 11 25 16 0 6 6 10 13 10 15 0 127 112 127 127 0 5 9 16
20 26 11 9 20 23 20 30 0 7 9 19 20 27 11 8 20 22 20 32 0 10 7 18 15 18 9 0
18 12 22 30 3 17 10 30 15 30 15 0 44 33 62 73 9 20 21 37 26 37 6 0 10 5 10
11 0 10 35 57 75 100 8 9 15 20 15 25 0 6 14 23 30 39 17 16 30 33 30 37 0 10
6 18 58 78 21 25 42 53 45 63 4 9 11 17 16 17 5 0 13 10 17 22 4 12 20 33 35
47 16 14 29 36 29 48 0 14 6 23 15 23 8 0 15 9 15 20 0 10 9 24 21 30 38 21
59 44 59 66 0 12 10 25 25 32 14 6 25 20 25 30 0 11 9 27 20 37 11 10 20 22
20 27 0 5 11 21 25 36 44 48 85 99 85 106 0 4 11 19 25 34 54 59 95 110 95
117 0 3 16 22 35 41 19 18 35 43 35 54 0 11 6 20 13 20 15 0 57 44 57 59 0 6
5 11 10 11 6 0 10 9 10 20 0 11 7 20 15 20 8 0 15 8 15 18 0 18 29 52 44 52
13 0 41 33 41 48 0 7 12 28 27 45 15 18 43 51 63 73 19 23 35 44 35 48 0 3 23
29 50 56 28 27 50 54 50 60 0 19 79 11 100 -10 11 -11 25 -20 31 -20 13 0 32
-19 48 -48 6 -12 20 -22 29 -22 10 0 33 -16 52 -35 19 -19 38 -35 43 -35 5 0
24 -16 43 -35 18 -19 37 -35 41 -35 5 0 22 -14 38 -30 16 -17 33 -30 39 -30 5
0 29 -20 53 -45 23 -25 46 -45 50 -45 5 0 28 -20 53 -45 25 -24 49 -44 54 -45
4 0 26 -18 47 -40 22 -22 48 -40 59 -40 11 0 20 -5 20 -11 0 -19 97 -109 118
-109 12 0 23 -8 27 -19 8 -27 95 -111 114 -111 17 0 51 -33 51 -50 0 -6 7 -10
15 -10 8 0 15 -6 15 -13 0 -17 36 -47 57 -47 19 0 93 -77 93 -97 0 -7 7 -13
15 -13 8 0 15 -5 15 -11 0 -14 41 -48 59 -49 8 0 73 -59 146 -130 72 -72 135
-130 140 -130 6 -1 18 -11 27 -23 52 -68 71 -87 84 -87 8 0 14 -7 14 -15 0 -8
6 -15 13 -15 11 -1 62 -53 137 -142 18 -21 36 -38 42 -38 12 0 38 -26 38 -38
0 -6 59 -68 130 -140 72 -71 130 -137 130 -145 0 -16 77 -97 92 -97 11 0 78
-69 78 -80 0 -6 7 -10 15 -10 8 0 15 -7 15 -15 0 -8 8 -15 19 -15 10 0 24 -7
31 -15 7 -8 18 -15 25 -15 8 0 15 -4 17 -9 3 -10 49 -15 111 -12 26 1 37 6 37
16 0 8 9 15 20 15 23 0 80 53 80 74 0 7 6 16 14 19 7 3 16 22 20 41 4 20 11
36 15 36 5 0 11 19 15 42 4 23 11 45 16 48 5 3 12 37 16 75 4 39 12 77 20 85
16 19 14 307 -2 318 -6 4 -13 36 -16 71 -3 37 -10 67 -16 69 -7 2 -12 11 -12
20 -1 10 -9 35 -20 57 -11 22 -19 46 -20 54 0 7 -11 24 -25 37 -14 13 -25 27
-25 31 0 13 -174 183 -188 183 -6 0 -12 9 -12 20 0 12 -50 70 -130 150 -71 72
-130 135 -130 140 0 13 -79 90 -92 90 -12 0 -38 26 -38 38 0 12 -789 802 -801
802 -5 0 -9 7 -9 15 0 8 -11 17 -25 21 -14 3 -25 10 -25 15 0 5 -7 9 -15 9 -8
0 -15 9 -15 20 0 11 -4 20 -10 20 -5 0 -65 56 -133 125 -68 69 -129 125 -135
125 -7 0 -12 5 -12 10 0 6 -7 10 -15 10 -8 0 -15 7 -15 15 0 8 -7 15 -15 15
-8 0 -15 4 -15 10 0 15 -160 170 -176 170 -9 0 -14 12 -14 36 0 40 -1 39 168
213 61 65 112 121 112 125 0 4 108 115 239 247 132 131 242 248 246 259 3 11
12 20 20 20 7 0 98 86 203 190 104 105 193 190 198 190 4 0 50 43 101 95 52
52 98 95 103 95 5 0 43 34 83 75 41 41 78 75 83 75 4 0 40 32 80 70 39 39 79
70 88 70 9 0 16 4 16 10 0 19 35 50 57 50 14 0 23 6 23 15 0 8 5 15 11 15 14
0 69 55 69 69 0 6 8 11 18 11 10 0 31 14 47 30 16 17 33 30 38 30 5 0 27 18
48 40 22 22 43 40 47 40 5 0 41 33 80 74 51 52 72 81 72 99 0 14 5 27 11 29 7
2 11 27 11 62 0 49 -5 63 -26 85 -14 15 -26 30 -26 34 0 9 -33 42 -51 51 -32
16 -62 35 -68 43 -11 15 -69 43 -90 43 -12 0 -21 4 -21 9 0 5 -24 12 -52 15
-29 4 -55 12 -58 17 -4 5 -57 12 -118 16 -62 3 -112 10 -112 15 0 11 -37 11
-44 0z"/>
</g>
</svg>
